<?xml version="1.0" encoding="utf-8"?>
<svg version="1.1" xmlns="http://www.w3.org/2000/svg" width="100%" height="100%" viewBox="0 0 213 20" preserveAspectRatio="xMinYMin meet">
<!-- Web Experience Toolkit (WET) / Boîte à outils de l'expérience Web (BOEW)
wet-boew.github.io/wet-boew/License-en.html / wet-boew.github.io/wet-boew/Licence-fr.html  -->
	<defs>
		<style type="text/css">
			.fip_text {fill:#000;}.fip_flag {fill:#F00;}
		</style>
	</defs>
	<g id="sig" transform="translate(-2,-2)">
		<path class="fip_flag" d="M 41.5,21.8 H 31.6 V 2.2 h 9.9 v 19.6 l 0,0 z M 21.8,3.7 c 0,0 -1.2,2.4 -1.4,2.6 -0.2,0.3 -0.3,0.3 -0.6,0.2 -0.3,-0.2 -1.3,-0.7 -1.3,-0.7 0,0 0.9,3.9 0.9,4.2 0.1,0.3 -0.2,0.6 -0.6,0.3 -0.1,-0.1 -1.8,-2 -1.8,-2 0,0 -0.4,0.9 -0.5,1.1 -0.1,0.2 -0.2,0.3 -0.4,0.2 -0.3,-0.1 -1.9,-0.4 -1.9,-0.4 0,0 0.6,1.9 0.7,2.2 0.1,0.2 0.2,0.4 -0.2,0.6 l -0.6,0.2 c 0,0 3.3,2.9 3.4,3 0.2,0.2 0.3,0.2 0.2,0.7 -0.2,0.5 -0.3,1.1 -0.3,1.1 0,0 3.1,-0.7 3.4,-0.7 0.3,0 0.6,0.1 0.6,0.4 0,0.3 -0.2,3.7 -0.2,3.7 h 1 c 0,0 -0.2,-3.3 -0.2,-3.7 0,-0.3 0.3,-0.4 0.6,-0.4 0.3,0.1 3.4,0.7 3.4,0.7 0,0 -0.2,-0.7 -0.3,-1.1 -0.2,-0.5 0,-0.6 0.2,-0.7 0.1,-0.1 3.4,-3 3.4,-3 L 28.7,12 c -0.3,-0.2 -0.2,-0.4 -0.2,-0.6 0.1,-0.2 0.7,-2.2 0.7,-2.2 0,0 -1.6,0.3 -1.9,0.4 C 27.1,9.7 27,9.5 26.9,9.4 26.8,9.2 26.4,8.3 26.4,8.3 c 0,0 -1.7,2 -1.8,2 -0.3,0.2 -0.7,0 -0.6,-0.3 0,-0.3 0.9,-4.2 0.9,-4.2 0,0 -1,0.6 -1.3,0.7 C 23.4,6.7 23.2,6.7 23,6.3 23,6 21.8,3.7 21.8,3.7 l 0,0 z M 11.9,21.8 V 2.2 H 2 v 19.6 h 9.9 l 0,0 z" />
		<path class="fip_text" d="M 66,10.2 H 65.1 L 64.9,9.3 c -0.8,0.9 -1.4,1.1 -2.4,1.1 -2.4,0 -3.8,-1.9 -3.8,-4.2 C 58.6,3.9 60,2 62.4,2 c 1.8,0 3.2,0.9 3.4,2.7 H 64.4 C 64.3,3.6 63.3,3.1 62.3,3.1 c -1.7,0 -2.4,1.5 -2.4,3.1 0,1.5 0.7,3.1 2.4,3.1 1.4,0 2.2,-0.8 2.3,-2.2 H 62.5 V 6 H 66 v 4.2 z m 1.1,-2.9 c 0,-1.8 1.1,-3.1 2.9,-3.1 1.8,0 2.9,1.3 2.9,3.1 0,1.8 -1.1,3.1 -2.9,3.1 -1.8,0 -2.9,-1.3 -2.9,-3.1 z m 4.5,0 c 0,-1 -0.5,-2 -1.7,-2 -1.2,0 -1.7,1 -1.7,2 0,1 0.5,2.1 1.7,2.1 1.2,0 1.7,-1.1 1.7,-2.1 z m 1.8,-2.9 h 1.4 l 1.5,4.5 0,0 1.4,-4.5 H 79 l -2,5.8 H 75.6 L 73.4,4.4 z m 7.4,3.2 c 0,0.9 0.5,1.7 1.6,1.7 0.7,0 1.2,-0.3 1.4,-1 H 85 c -0.3,1.3 -1.4,2 -2.6,2 -1.8,0 -2.8,-1.3 -2.8,-3.1 0,-1.7 1.1,-3.1 2.8,-3.1 1.8,0 3,1.7 2.7,3.4 h -4.3 v 0.1 z m 3,-0.8 C 83.8,6 83.2,5.3 82.3,5.3 81.4,5.3 80.8,6 80.8,6.8 h 3 z m 2.3,-2.4 h 1.2 v 1.1 l 0,0 c 0.1,-0.6 0.9,-1.3 1.7,-1.3 0.3,0 0.4,0 0.5,0 v 1.2 c -0.2,0 -0.4,-0.1 -0.6,-0.1 -0.9,0 -1.6,0.7 -1.6,2 v 2.8 H 86 V 4.4 h 0.1 z m 4.2,0 h 1.2 v 0.9 l 0,0 c 0.4,-0.6 1,-1 1.8,-1 1.3,0 2.1,0.7 2.1,2 v 4 H 94.1 V 6.6 C 94.1,5.7 93.7,5.3 93,5.3 92.1,5.3 91.6,6 91.6,6.8 v 3.4 H 90.3 V 4.4 z m 6.4,0 h 1.2 v 0.8 l 0,0 c 0.4,-0.6 0.9,-1 1.8,-1 0.7,0 1.4,0.3 1.6,1 0.4,-0.6 1,-1 1.8,-1 1.2,0 1.9,0.5 1.9,2 v 4 h -1.3 V 6.8 c 0,-0.9 -0.1,-1.6 -1.1,-1.6 -0.9,0 -1.2,0.6 -1.2,1.6 v 3.4 h -1.3 V 6.5 c 0,-0.8 -0.2,-1.2 -1,-1.2 -0.7,0 -1.3,0.5 -1.3,1.5 v 3.5 H 96.5 V 4.4 h 0.2 z m 10.8,3.2 c 0,0.9 0.5,1.7 1.6,1.7 0.7,0 1.2,-0.3 1.4,-1 h 1.2 c -0.3,1.3 -1.4,2 -2.6,2 -1.8,0 -2.8,-1.3 -2.8,-3.1 0,-1.7 1.1,-3.1 2.8,-3.1 1.8,0 3,1.7 2.7,3.4 h -4.3 v 0.1 z m 3,-0.8 c 0,-0.8 -0.6,-1.5 -1.5,-1.5 -0.9,0 -1.5,0.7 -1.5,1.5 h 3 z m 2.3,-2.4 h 1.2 v 0.9 l 0,0 c 0.4,-0.6 1,-1 1.8,-1 1.3,0 2.1,0.7 2.1,2 v 4 h -1.3 V 6.6 c 0,-0.9 -0.4,-1.3 -1.1,-1.3 -0.9,0 -1.4,0.7 -1.4,1.5 v 3.4 h -1.3 V 4.4 z m 5.9,0 h 1 V 2.7 h 1.3 v 1.7 h 1.2 v 1 H 121 v 3.1 c 0,0.5 0,0.8 0.6,0.8 0.2,0 0.4,0 0.5,0 v 1 c -0.3,0 -0.6,0.1 -0.8,0.1 -1.3,0 -1.6,-0.5 -1.6,-1.5 V 5.4 h -1 v -1 z M 58.5,18.9 c 0,-1.8 1.1,-3.1 2.9,-3.1 1.9,0 2.9,1.3 2.9,3.1 0,1.8 -1.1,3.1 -2.9,3.1 -1.8,0 -2.9,-1.3 -2.9,-3.1 z m 4.6,0 c 0,-1 -0.5,-2 -1.7,-2 -1.1,0 -1.7,1 -1.7,2 0,1 0.5,2.1 1.7,2.1 1.2,0 1.7,-1.1 1.7,-2.1 z M 64.9,16 h 1 v -0.5 c 0,-1.5 0.8,-1.7 1.6,-1.7 0.4,0 0.7,0 0.9,0.1 v 1 c -0.2,0 -0.3,-0.1 -0.6,-0.1 -0.3,0 -0.6,0.1 -0.6,0.6 V 16 h 1.1 v 1 h -1.1 v 4.9 H 65.9 V 17 h -1 v -1 z m 12.8,0.3 c -0.2,-0.9 -0.8,-1.6 -2,-1.6 -1.7,0 -2.4,1.5 -2.4,3.1 0,1.5 0.7,3.1 2.4,3.1 1.2,0 1.9,-0.9 2,-2.1 h 1.4 C 79,20.7 77.7,22 75.7,22 c -2.4,0 -3.8,-1.9 -3.8,-4.2 0,-2.3 1.4,-4.2 3.8,-4.2 1.8,0 3.2,1 3.4,2.7 h -1.4 z m 7.4,4.2 c 0,0.3 0.1,0.4 0.3,0.4 0.1,0 0.2,0 0.3,0 v 0.9 c -0.2,0.1 -0.6,0.1 -0.8,0.1 -0.5,0 -0.9,-0.2 -1,-0.7 -0.5,0.5 -1.3,0.7 -2,0.7 -1,0 -2,-0.6 -2,-1.7 0,-1.5 1.2,-1.7 2.2,-1.8 0.9,-0.2 1.7,-0.1 1.7,-0.8 0,-0.7 -0.7,-0.8 -1.2,-0.8 -0.7,0 -1.2,0.3 -1.3,0.9 H 80 c 0.1,-1.5 1.4,-1.9 2.6,-1.9 1.1,0 2.3,0.5 2.3,1.7 v 3 h 0.2 z m -1.2,-1.6 c -0.4,0.3 -1,0.2 -1.6,0.3 -0.6,0.1 -1,0.3 -1,1 0,0.6 0.7,0.7 1.2,0.7 0.6,0 1.4,-0.3 1.4,-1.1 V 18.9 z M 86.5,16 h 1.2 v 0.9 l 0,0 c 0.4,-0.6 1,-1 1.8,-1 1.3,0 2.1,0.7 2.1,2 v 4 h -1.3 v -3.7 c 0,-0.9 -0.4,-1.3 -1.1,-1.3 -0.9,0 -1.4,0.7 -1.4,1.5 v 3.4 H 86.5 V 16 z m 11.2,4.5 c 0,0.3 0.1,0.4 0.3,0.4 0.1,0 0.2,0 0.3,0 v 0.9 c -0.2,0.1 -0.6,0.1 -0.8,0.1 -0.5,0 -0.9,-0.2 -1,-0.7 -0.5,0.5 -1.3,0.7 -2,0.7 -1,0 -2,-0.6 -2,-1.7 0,-1.5 1.2,-1.7 2.2,-1.8 0.9,-0.2 1.7,-0.1 1.7,-0.8 0,-0.7 -0.7,-0.8 -1.2,-0.8 -0.7,0 -1.2,0.3 -1.3,0.9 h -1.3 c 0.1,-1.5 1.4,-1.9 2.6,-1.9 1.1,0 2.3,0.5 2.3,1.7 v 3 h 0.2 z m -1.3,-1.6 c -0.4,0.3 -1,0.2 -1.6,0.3 -0.6,0.1 -1,0.3 -1,1 0,0.6 0.7,0.7 1.2,0.7 0.6,0 1.4,-0.3 1.4,-1.1 v -0.9 z m 8.1,2.9 h -1.2 V 21 l 0,0 c -0.3,0.7 -1.1,0.9 -1.8,0.9 -1.8,0 -2.7,-1.4 -2.7,-3.1 0,-2.1 1.3,-3 2.5,-3 0.7,0 1.5,0.3 1.9,0.9 l 0,0 v -3 h 1.3 v 8.1 z M 101.7,21 c 1.1,0 1.6,-1 1.6,-2.1 0,-1.3 -0.6,-2 -1.6,-2 -1.2,0 -1.6,1.1 -1.6,2.1 0,1 0.5,2 1.6,2 z m 9.1,-0.5 c 0,0.3 0.1,0.4 0.3,0.4 0.1,0 0.2,0 0.3,0 v 0.9 c -0.2,0.1 -0.6,0.1 -0.8,0.1 -0.5,0 -0.9,-0.2 -1,-0.7 -0.5,0.5 -1.3,0.7 -2,0.7 -1,0 -2,-0.6 -2,-1.7 0,-1.5 1.2,-1.7 2.2,-1.8 0.9,-0.2 1.7,-0.1 1.7,-0.8 0,-0.7 -0.7,-0.8 -1.2,-0.8 -0.7,0 -1.2,0.3 -1.3,0.9 h -1.3 c 0.1,-1.5 1.4,-1.9 2.6,-1.9 1.1,0 2.3,0.5 2.3,1.7 v 3 h 0.2 z m -1.3,-1.6 c -0.4,0.3 -1,0.2 -1.6,0.3 -0.6,0.1 -1,0.3 -1,1 0,0.6 0.7,0.7 1.2,0.7 0.6,0 1.4,-0.3 1.4,-1.1 v -0.9 z m 37.4,-8.7 H 146 l -0.2,-0.9 c -0.8,0.9 -1.4,1.1 -2.4,1.1 -2.4,0 -3.8,-1.9 -3.8,-4.2 0,-2.3 1.4,-4.2 3.8,-4.2 1.8,0 3.2,0.9 3.4,2.7 h -1.4 c -0.1,-1.1 -1.1,-1.6 -2.1,-1.6 -1.7,0 -2.4,1.5 -2.4,3.1 0,1.5 0.7,3.1 2.4,3.1 1.4,0 2.2,-0.8 2.3,-2.2 h -2.1 V 6 h 3.4 v 4.2 z m 1.2,-2.9 c 0,-1.8 1.1,-3.1 2.9,-3.1 1.8,0 2.9,1.3 2.9,3.1 0,1.8 -1.1,3.1 -2.9,3.1 -1.8,0 -2.9,-1.3 -2.9,-3.1 z m 4.5,0 c 0,-1 -0.5,-2 -1.7,-2 -1.1,0 -1.7,1 -1.7,2 0,1 0.5,2.1 1.7,2.1 1.2,0 1.7,-1.1 1.7,-2.1 z m 7.5,2.9 h -1.3 V 9.4 l 0,0 c -0.3,0.6 -1,1 -1.7,1 -1.5,0 -2.2,-0.8 -2.2,-2.3 V 4.4 h 1.3 V 8 c 0,1 0.4,1.4 1.1,1.4 1.1,0 1.4,-0.7 1.4,-1.6 V 4.4 h 1.3 l 0.1,5.8 0,0 z m 0.8,-5.8 h 1.4 l 1.5,4.5 0,0 1.4,-4.5 h 1.3 l -2.1,5.8 H 163 l -2.1,-5.8 z m 7.2,3.2 c 0,0.9 0.5,1.7 1.6,1.7 0.7,0 1.2,-0.3 1.4,-1 h 1.2 c -0.3,1.3 -1.4,2 -2.6,2 -1.8,0 -2.8,-1.3 -2.8,-3.1 0,-1.7 1.1,-3.1 2.8,-3.1 1.8,0 3,1.7 2.7,3.4 h -4.3 v 0.1 z m 3,-0.8 c 0,-0.8 -0.6,-1.5 -1.5,-1.5 -0.9,0 -1.5,0.7 -1.5,1.5 h 3 z m 2.3,-2.4 h 1.2 v 1.1 l 0,0 c 0.1,-0.6 0.9,-1.3 1.7,-1.3 0.3,0 0.4,0 0.5,0 v 1.2 c -0.2,0 -0.4,-0.1 -0.6,-0.1 -0.9,0 -1.6,0.7 -1.6,2 v 2.8 h -1.3 l 0.1,-5.7 0,0 z m 4,0 h 1.2 v 0.9 l 0,0 c 0.4,-0.6 1,-1 1.8,-1 1.3,0 2.1,0.7 2.1,2 v 4 h -1.3 V 6.6 c 0,-0.9 -0.4,-1.3 -1.1,-1.3 -0.9,0 -1.4,0.7 -1.4,1.5 v 3.4 h -1.3 V 4.4 z m 7.5,3.2 c 0,0.9 0.5,1.7 1.6,1.7 0.7,0 1.2,-0.3 1.4,-1 h 1.2 c -0.3,1.3 -1.4,2 -2.6,2 -1.8,0 -2.8,-1.3 -2.8,-3.1 0,-1.7 1.1,-3.1 2.8,-3.1 1.8,0 3,1.7 2.7,3.4 h -4.3 v 0.1 z m 3,-0.8 c 0,-0.8 -0.6,-1.5 -1.5,-1.5 -0.9,0 -1.5,0.7 -1.5,1.5 h 3 z m 2.2,-2.4 h 1.2 v 0.8 l 0,0 c 0.4,-0.6 0.9,-1 1.8,-1 0.7,0 1.4,0.3 1.6,1 0.4,-0.6 1,-1 1.8,-1 1.2,0 1.9,0.5 1.9,2 v 4 h -1.3 V 6.8 c 0,-0.9 -0.1,-1.6 -1.1,-1.6 -0.9,0 -1.2,0.6 -1.2,1.6 v 3.4 h -1.3 V 6.5 c 0,-0.8 -0.2,-1.2 -1,-1.2 -0.7,0 -1.3,0.5 -1.3,1.5 v 3.5 h -1.3 V 4.4 h 0.2 z m 10.8,3.2 c 0,0.9 0.5,1.7 1.6,1.7 0.7,0 1.2,-0.3 1.4,-1 h 1.2 c -0.3,1.3 -1.4,2 -2.6,2 -1.8,0 -2.8,-1.3 -2.8,-3.1 0,-1.7 1.1,-3.1 2.8,-3.1 1.8,0 3,1.7 2.7,3.4 h -4.3 v 0.1 z m 3,-0.8 c 0,-0.8 -0.6,-1.5 -1.5,-1.5 -0.9,0 -1.5,0.7 -1.5,1.5 h 3 z m 2.3,-2.4 h 1.2 v 0.9 l 0,0 c 0.4,-0.6 1,-1 1.8,-1 1.3,0 2.1,0.7 2.1,2 v 4 H 210 V 6.6 c 0,-0.9 -0.4,-1.3 -1.1,-1.3 -0.9,0 -1.4,0.7 -1.4,1.5 v 3.4 h -1.3 V 4.4 z m 5.8,0 h 1 V 2.7 h 1.3 v 1.7 h 1.2 v 1 h -1.2 v 3.1 c 0,0.5 0,0.8 0.6,0.8 0.2,0 0.4,0 0.5,0 v 1 c -0.3,0 -0.6,0.1 -0.8,0.1 -1.3,0 -1.6,-0.5 -1.6,-1.5 V 5.4 h -1 v -1 z M 145.2,21.8 H 144 V 21 l 0,0 c -0.3,0.7 -1.1,0.9 -1.8,0.9 -1.8,0 -2.7,-1.4 -2.7,-3.1 0,-2.1 1.2,-3 2.5,-3 0.7,0 1.5,0.3 1.9,0.9 l 0,0 v -3 h 1.3 v 8.1 z M 142.3,21 c 1.1,0 1.6,-1 1.6,-2.1 0,-1.3 -0.6,-2 -1.6,-2 -1.2,0 -1.6,1.1 -1.6,2.1 0,1 0.5,2 1.6,2 z m 9.4,0.8 h -1.3 V 21 l 0,0 c -0.3,0.6 -1,1 -1.7,1 -1.5,0 -2.2,-0.8 -2.2,-2.3 V 16 h 1.3 v 3.6 c 0,1 0.4,1.4 1.1,1.4 1.1,0 1.4,-0.7 1.4,-1.6 V 16 h 1.3 v 5.8 h 0.1 z m 10.1,-5.5 c -0.2,-0.9 -0.8,-1.6 -2,-1.6 -1.7,0 -2.4,1.5 -2.4,3.1 0,1.5 0.7,3.1 2.4,3.1 1.3,0 1.9,-0.9 2,-2.1 h 1.4 c -0.1,1.9 -1.5,3.3 -3.4,3.3 -2.4,0 -3.8,-1.9 -3.8,-4.2 0,-2.3 1.4,-4.2 3.8,-4.2 1.8,0 3.2,1 3.4,2.7 h -1.4 v -0.1 z m 7.3,4.2 c 0,0.3 0.1,0.4 0.3,0.4 0.1,0 0.2,0 0.3,0 v 0.9 c -0.2,0.1 -0.6,0.1 -0.8,0.1 -0.5,0 -0.9,-0.2 -1,-0.7 -0.5,0.5 -1.3,0.7 -2,0.7 -1,0 -2,-0.6 -2,-1.7 0,-1.5 1.2,-1.7 2.2,-1.8 0.9,-0.2 1.7,-0.1 1.7,-0.8 0,-0.7 -0.7,-0.8 -1.2,-0.8 -0.7,0 -1.2,0.3 -1.3,0.9 H 164 c 0.1,-1.5 1.4,-1.9 2.6,-1.9 1.1,0 2.3,0.5 2.3,1.7 v 3 h 0.2 z m -1.3,-1.6 c -0.4,0.3 -1,0.2 -1.6,0.3 -0.6,0.1 -1,0.3 -1,1 0,0.6 0.7,0.7 1.2,0.7 0.6,0 1.4,-0.3 1.4,-1.1 v -0.9 l 0,0 z m 2.8,-2.9 h 1.2 v 0.9 l 0,0 c 0.4,-0.6 1,-1 1.8,-1 1.3,0 2.1,0.7 2.1,2 v 4 h -1.3 v -3.7 c 0,-0.9 -0.4,-1.3 -1.1,-1.3 -0.9,0 -1.4,0.7 -1.4,1.5 v 3.4 h -1.3 V 16 z m 11.1,4.5 c 0,0.3 0.1,0.4 0.3,0.4 0.1,0 0.2,0 0.3,0 v 0.9 c -0.2,0.1 -0.6,0.1 -0.8,0.1 -0.5,0 -0.9,-0.2 -1,-0.7 -0.5,0.5 -1.3,0.7 -2,0.7 -1,0 -2,-0.6 -2,-1.7 0,-1.5 1.2,-1.7 2.2,-1.8 0.9,-0.2 1.7,-0.1 1.7,-0.8 0,-0.7 -0.7,-0.8 -1.2,-0.8 -0.7,0 -1.2,0.3 -1.3,0.9 h -1.3 c 0.1,-1.5 1.4,-1.9 2.6,-1.9 1.1,0 2.3,0.5 2.3,1.7 v 3 h 0.2 z m -1.3,-1.6 c -0.4,0.3 -1,0.2 -1.6,0.3 -0.6,0.1 -1,0.3 -1,1 0,0.6 0.7,0.7 1.2,0.7 0.6,0 1.4,-0.3 1.4,-1.1 v -0.9 l 0,0 z m 8.2,2.9 h -1.2 V 21 l 0,0 c -0.3,0.7 -1.1,0.9 -1.8,0.9 -1.8,0 -2.7,-1.4 -2.7,-3.1 0,-2.1 1.3,-3 2.5,-3 0.7,0 1.5,0.3 1.9,0.9 l 0,0 v -3 h 1.3 v 8.1 z M 185.7,21 c 1.1,0 1.6,-1 1.6,-2.1 0,-1.3 -0.6,-2 -1.6,-2 -1.2,0 -1.6,1.1 -1.6,2.1 0,1 0.5,2 1.6,2 z m 9.1,-0.5 c 0,0.3 0.1,0.4 0.3,0.4 0.1,0 0.2,0 0.3,0 v 0.9 c -0.2,0.1 -0.6,0.1 -0.8,0.1 -0.5,0 -0.9,-0.2 -1,-0.7 -0.5,0.5 -1.3,0.7 -2,0.7 -1,0 -2,-0.6 -2,-1.7 0,-1.5 1.2,-1.7 2.2,-1.8 0.9,-0.2 1.7,-0.1 1.7,-0.8 0,-0.7 -0.7,-0.8 -1.2,-0.8 -0.7,0 -1.2,0.3 -1.3,0.9 h -1.3 c 0.1,-1.5 1.4,-1.9 2.6,-1.9 1.1,0 2.3,0.5 2.3,1.7 v 3 h 0.2 z m -1.3,-1.6 c -0.4,0.3 -1,0.2 -1.6,0.3 -0.6,0.1 -1,0.3 -1,1 0,0.6 0.7,0.7 1.2,0.7 0.6,0 1.4,-0.3 1.4,-1.1 v -0.9 l 0,0 z" />
	</g>
</svg>