<?xml version="1.0" encoding="UTF-8"?>
<svg version="1.2" baseProfile="tiny" width="215.9mm" height="232.9mm" viewBox="0 0 21590 23290" preserveAspectRatio="xMidYMid" fill-rule="evenodd" stroke-width="28.222" stroke-linejoin="round" xmlns="http://www.w3.org/2000/svg" xmlns:xlink="http://www.w3.org/1999/xlink" xml:space="preserve">
<!-- Web Experience Toolkit (WET) / Boîte à outils de l'expérience Web (BOEW)
wet-boew.github.io/wet-boew/License-en.html / wet-boew.github.io/wet-boew/Licence-fr.html  -->
    <defs>
        <style type="text/css">
            .fip_text {fill:#000;}.fip_flag {fill:#F00;}.fip_background {fill:#FFF;}
        </style>
    </defs>
    <g visibility="visible" id="socialMedia">
        <g visibility="invisible">
            <path class="fip_background" stroke="none" d="M 10795,23290 L 0,23290 0,0 21590,0 21590,23290 10795,23290 Z"/>
        </g>
        <g visibility="visible">
            <path class="fip_flag" id="flag_large" stroke="none" d="M 15645,3100 L 20499,3100 20499,12800 15645,12800 15645,3100 Z M 7249,7953 C 7439,7858 7439,7675 7439,7579 7344,7484 7065,6553 7065,6553 7065,6553 7813,6737 7997,6737 8092,6832 8180,6737 8180,6648 8275,6553 8371,6274 8371,6274 L 9302,7301 C 9492,7389 9581,7297 9581,7110 9581,6924 9118,4969 9118,4969 9118,4969 9581,5248 9771,5343 9860,5431 9955,5431 10050,5248 10145,5064 10703,3943 10703,3943 10703,4038 11260,5064 11355,5248 11355,5431 11447,5435 11634,5343 11821,5251 12287,4969 12287,4969 12287,4969 11824,6927 11824,7110 11729,7301 11913,7484 12103,7301 12191,7206 13034,6274 13034,6274 13034,6274 13218,6645 13218,6737 13218,6828 13317,6832 13408,6832 13500,6832 14245,6648 14245,6648 14245,6648 13966,7583 13966,7675 13966,7766 13871,7858 14061,7953 L 14340,8042 C 14340,8042 12756,9442 12661,9537 12565,9632 12477,9632 12565,9911 12661,10094 12756,10468 12756,10468 12756,10468 11260,10094 11076,10094 10886,10094 10798,10094 10798,10285 10798,10373 10886,12052 10886,12052 L 10424,12052 C 10424,12052 10512,10472 10512,10285 10512,10098 10424,10094 10233,10094 10050,10190 8554,10468 8554,10468 8554,10468 8653,10190 8745,9911 8836,9632 8745,9632 8649,9537 8649,9442 6970,8042 6970,8042 L 7249,7953 Z M 1001,3100 L 5848,3100 5848,12800 1001,12800 1001,3100 Z"/>
            <path class="fip_flag" id="flag_small" stroke="none" d="M 19659,15627 L 20373,15627 20373,17054 19659,17054 19659,15627 Z M 18424,16341 C 18452,16327 18452,16300 18452,16286 18438,16272 18397,16135 18397,16135 18397,16135 18507,16162 18534,16162 18548,16176 18561,16162 18561,16149 18575,16135 18589,16094 18589,16094 L 18726,16245 C 18754,16258 18767,16244 18767,16217 18767,16189 18699,15902 18699,15902 18699,15902 18767,15943 18795,15957 18808,15970 18822,15970 18836,15943 18850,15916 18932,15751 18932,15751 18932,15765 19014,15916 19028,15943 19028,15970 19042,15970 19069,15957 19097,15943 19165,15902 19165,15902 19165,15902 19097,16190 19097,16217 19083,16245 19110,16272 19138,16245 19151,16231 19275,16094 19275,16094 19275,16094 19302,16148 19302,16162 19302,16175 19317,16176 19330,16176 19344,16176 19453,16149 19453,16149 19453,16149 19412,16286 19412,16300 19412,16313 19398,16327 19426,16341 L 19467,16354 C 19467,16354 19234,16560 19220,16574 19206,16588 19193,16588 19206,16629 19220,16656 19234,16711 19234,16711 19234,16711 19014,16656 18987,16656 18959,16656 18946,16656 18946,16684 18946,16697 18959,16944 18959,16944 L 18891,16944 C 18891,16944 18904,16711 18904,16684 18904,16656 18891,16656 18863,16656 18836,16670 18616,16711 18616,16711 18616,16711 18631,16670 18644,16629 18658,16588 18644,16588 18630,16574 18630,16560 18383,16354 18383,16354 L 18424,16341 Z M 17505,15627 L 18218,15627 18218,17054 17505,17054 17505,15627 Z"/>
            <path class="fip_text" id="canada_text" stroke="none" d="M 3453,15600 C 3891,15612 4169,15756 4321,15819 4376,15833 4526,15901 4581,15778 4635,15654 4609,15737 4623,15696 4650,15641 4759,15585 4787,15723 4814,15860 4897,17040 4897,17109 4897,17246 4719,17260 4705,17123 4691,16944 4335,15751 3333,15765 2441,15792 1865,16807 1906,18137 1933,19385 2523,20057 3511,20044 4458,20016 4719,19303 4856,18864 4911,18685 5089,18727 5034,18905 4882,19576 4391,20165 3528,20263 L 3032,20263 C 2021,20149 1026,19346 1000,18000 973,16492 2167,15627 3333,15600 L 3453,15600 Z M 20496,20106 C 20421,20155 20303,20194 20112,20194 19687,20194 19508,20016 19453,19961 19412,19906 19412,19906 19357,19947 19261,20030 19042,20181 18671,20194 18287,20208 17738,20016 17725,19467 17711,18905 18246,18768 18438,18727 18493,18713 18973,18644 19138,18562 19261,18507 19330,18439 19357,18301 L 19357,18288 19357,18219 19357,18068 C 19343,17670 19151,17397 18836,17397 18465,17397 18452,17670 18424,17766 18397,17849 18342,18082 18136,18082 17903,18082 17834,17945 17848,17821 17848,17712 17862,17260 18781,17260 19632,17260 19961,17602 19961,18027 L 19961,19413 C 19961,20057 20208,20071 20290,20071 20349,20071 20438,20041 20496,19955 L 20496,20106 Z M 18808,20057 C 19138,20057 19357,19728 19357,19275 L 19357,18699 19357,18685 19357,18672 C 19357,18658 19343,18644 19343,18644 L 19316,18644 C 18973,18781 18795,18891 18795,18891 18411,19111 18328,19426 18328,19577 18328,19742 18424,20057 18808,20057 Z M 17546,20044 C 17628,20057 17656,20112 17560,20153 17464,20167 16970,20222 16764,20249 16572,20263 16586,20126 16572,20057 16558,19961 16572,19947 16462,20016 16366,20071 16106,20236 15735,20236 14980,20236 14253,19742 14253,18713 14253,17753 15049,17287 15694,17287 16092,17287 16407,17478 16476,17533 16517,17561 16531,17574 16545,17561 L 16545,17547 C 16558,17533 16558,17519 16558,17492 L 16558,17465 16558,16492 C 16558,15765 16119,15737 16023,15723 15927,15723 15968,15655 16023,15655 16078,15641 16902,15600 17025,15600 17149,15600 17148,15710 17148,15751 L 17148,19028 C 17148,20070 17491,20030 17546,20044 Z M 15845,20085 C 16202,20085 16545,19797 16558,18974 L 16558,18795 C 16545,17958 16394,17492 15804,17451 15351,17424 14926,17931 14926,18685 14926,19371 15241,20085 15845,20085 Z M 14240,19906 C 14281,19838 14363,19879 14336,19934 14308,20002 14253,20208 13814,20208 13389,20208 13211,20030 13156,19975 13114,19920 13114,19920 13060,19961 12964,20044 12744,20194 12375,20208 11990,20222 11442,20030 11428,19481 11414,18919 11949,18781 12141,18740 12196,18727 12675,18659 12840,18576 13005,18494 13060,18425 13073,18219 L 13073,18164 13073,18123 13073,18096 13073,18082 C 13073,17670 12868,17397 12553,17397 12183,17397 12169,17670 12141,17766 12114,17849 12059,18082 11853,18082 11620,18082 11551,17945 11565,17821 11565,17712 11579,17260 12498,17260 13348,17260 13677,17602 13677,18027 L 13677,19413 C 13677,20057 13924,20071 14006,20071 14075,20071 14185,20030 14240,19906 Z M 12539,20057 C 12854,20057 13073,19728 13073,19289 L 13073,18713 C 13073,18699 13073,18699 13073,18699 L 13073,18658 13073,18644 13046,18644 C 12703,18781 12526,18891 12526,18891 12141,19111 12059,19426 12059,19577 12059,19742 12155,20057 12539,20057 Z M 11222,20044 C 11400,20085 11332,20153 11263,20126 L 9987,20126 C 9905,20126 9878,20057 10028,20030 10193,20002 10330,19851 10330,19371 L 10330,18205 C 10330,17904 10275,17438 9713,17451 8917,17465 8986,18343 8986,18631 L 8986,19385 C 8986,19920 9137,20016 9301,20044 9466,20071 9425,20153 9342,20153 L 8094,20153 C 8025,20153 7943,20098 8108,20057 8231,20016 8368,19961 8368,19275 L 8368,18096 C 8368,17534 8038,17506 7970,17492 7901,17478 7874,17438 7970,17411 8080,17383 8684,17287 8780,17274 8876,17260 8903,17301 8917,17342 8931,17397 8958,17478 8972,17533 8986,17602 9013,17588 9054,17547 9082,17533 9384,17260 9919,17260 10948,17260 10920,17931 10920,18192 L 10920,19289 C 10920,19893 11112,20016 11222,20044 Z M 7888,19906 C 7916,19838 8012,19879 7984,19920 7957,19989 7902,20194 7463,20194 7037,20194 6859,20016 6804,19961 6763,19906 6763,19906 6708,19947 6612,20030 6393,20181 6022,20194 5638,20208 5089,20016 5075,19467 5062,18905 5597,18768 5789,18727 5844,18713 6324,18644 6489,18562 6612,18507 6681,18439 6708,18301 L 6708,18288 C 6722,18274 6722,18247 6722,18219 L 6722,18068 C 6708,17670 6516,17397 6200,17397 5830,17397 5816,17670 5789,17766 5761,17849 5707,18082 5501,18082 5267,18082 5199,17945 5213,17821 5213,17712 5226,17260 6146,17260 6996,17260 7326,17602 7326,18027 L 7326,19413 C 7326,20057 7572,20071 7655,20071 7723,20071 7833,20030 7888,19906 Z M 6173,20057 C 6502,20057 6722,19728 6722,19289 L 6722,18713 6722,18699 6722,18672 C 6722,18658 6708,18644 6708,18644 L 6681,18644 C 6338,18781 6159,18891 6159,18891 5775,19111 5693,19413 5693,19577 5693,19742 5789,20057 6173,20057 Z"/>
        </g>
    </g>
</svg>
