<?xml version="1.0" encoding="utf-8"?>
<svg version="1.1" xmlns="http://www.w3.org/2000/svg" width="100%" height="100%" viewBox="0 0 143 34" preserveAspectRatio="xMinYMin meet">
<!-- Web Experience Toolkit (WET) / Boîte à outils de l'expérience Web (BOEW)
www.tbs.gc.ca/ws-nw/wet-boew/terms / www.sct.gc.ca/ws-nw/wet-boew/conditions -->
	<defs>
		<style type="text/css">
			.fip_text {fill:#000;}.fip_flag {fill:#F00;}
			@media screen {.fip_text, .fip_flag {fill: #FFF;}}
		</style>
	</defs>
	<g id="wmms" transform="translate(-1, -1)">
		<path class="fip_flag" d="M137.9,1.2h5.2v10.4h-5.2V1.2z M128.9,6.4l-0.3,0.1c0,0,1.8,1.5,1.8,1.6c0.1,0.1,0.2,0.1,0.1,0.4 c-0.1,0.3-0.2,0.6-0.2,0.6s1.6-0.3,1.8-0.4c0.2,0,0.3,0,0.3,0.2c0,0.2-0.1,1.9-0.1,1.9h0.5c0,0-0.1-1.8-0.1-1.9 c0-0.2,0.1-0.2,0.3-0.2c0.2,0,1.8,0.4,1.8,0.4s-0.1-0.4-0.2-0.6c-0.1-0.3,0-0.3,0.1-0.4c0.1-0.1,1.8-1.6,1.8-1.6l-0.3-0.1 c-0.2-0.1-0.1-0.2-0.1-0.3s0.3-1.1,0.3-1.1s-0.8,0.2-0.9,0.2c-0.1,0-0.2,0-0.2-0.1s-0.2-0.5-0.2-0.5s-0.9,1-1,1.1 c-0.2,0.2-0.4,0-0.3-0.2c0-0.2,0.5-2.3,0.5-2.3s-0.5,0.3-0.7,0.4s-0.3,0.1-0.3-0.1c-0.1-0.2-0.7-1.3-0.7-1.4c0,0-0.6,1.2-0.7,1.4 s-0.2,0.2-0.3,0.1c-0.2-0.1-0.7-0.4-0.7-0.4s0.5,2.1,0.5,2.3s-0.1,0.3-0.3,0.2l-1-1.1c0,0-0.1,0.3-0.2,0.4c0,0.1-0.1,0.2-0.2,0.1 c-0.2,0-1-0.2-1-0.2s0.3,1,0.4,1.1C129.1,6.1,129.1,6.3,128.9,6.4z M122.2,1.2h5.2v10.4h-5.2V1.2z"/>
		<path class="fip_text" d="M144.2,32.4c-0.4,0.9-1.2,1.2-1.7,1.2c-0.6,0-2.4-0.1-2.4-4.8c0,0,0-9.5,0-10.1c0-3.1-2.4-5.6-8.6-5.6	c-6.7,0-6.8,3.3-6.8,4.1c-0.1,0.9,0.4,1.9,2.1,1.9c1.5,0,1.9-1.7,2.1-2.3c0.2-0.7,0.3-2.7,3-2.7c2.3,0,3.7,2,3.8,4.9 c0,0.5,0,0.8,0,1.1c0,0.2,0,0.3,0,0.5l0,0l0,0v0.1c-0.2,1-0.7,1.5-1.6,1.9c-1.2,0.6-4.7,1.1-5.1,1.2c-1.4,0.3-5.3,1.3-5.2,5.4 c0.1,4,4.1,5.4,6.9,5.3c2.7-0.1,4.3-1.2,5-1.8c0.4-0.3,0.4-0.3,0.7,0.1c0.4,0.4,1.7,1.7,4.8,1.7c3.2,0,3.6-1.5,3.8-2 C145.1,32.2,144.4,31.9,144.2,32.4z M131.7,33.5c-2.8,0-3.5-2.3-3.5-3.5c0-1.1,0.6-3.4,3.4-5c0,0,1.3-0.8,3.8-1.8 c0.1,0,0.2,0,0.2,0s0.1,0.1,0.1,0.2l0,0l0,0v0.1l0,0l0,0v0.1l0,0l0,0l0,0v4.2C135.7,31.1,134.1,33.5,131.7,33.5z M122.5,33.4 c-0.4-0.1-2.9,0.2-2.9-7.4s0-23.9,0-23.9c0-0.3,0-1.1-0.9-1.1c-0.9,0-6.9,0.3-7.3,0.4c-0.4,0-0.7,0.5,0,0.5 c0.7,0.1,3.9,0.3,3.9,5.6c0,2.6,0,5.2,0,7.1c0,0.1,0,0.2,0,0.2c0,0.2,0,0.3-0.1,0.4c0,0,0,0,0,0.1l0,0c-0.1,0.1-0.2,0-0.5-0.2 c-0.5-0.4-2.8-1.8-5.7-1.8c-4.7,0-10.5,3.4-10.5,10.4c0,7.5,5.3,11.1,10.8,11.1c2.7,0,4.6-1.2,5.3-1.6c0.8-0.5,0.7-0.4,0.8,0.3 c0.1,0.5,0,1.5,1.4,1.4c1.5-0.2,5.1-0.6,5.8-0.7C123.3,33.9,123.1,33.5,122.5,33.4z M110.1,33.7c-4.4,0-6.7-5.2-6.7-10.2 c0-5.5,3.1-9.2,6.4-9c4.3,0.3,5.4,3.7,5.5,9.8c0,0.4,0,0.8,0,1.3C115.2,31.6,112.7,33.7,110.1,33.7z M98.4,32.4 c-0.4,0.9-1.2,1.2-1.7,1.2c-0.6,0-2.4-0.1-2.4-4.8c0,0,0-9.5,0-10.1c0-3.1-2.4-5.6-8.6-5.6c-6.7,0-6.8,3.3-6.8,4.1 c-0.1,0.9,0.4,1.9,2.1,1.9c1.5,0,1.9-1.7,2.1-2.3c0.2-0.7,0.3-2.7,3-2.7c2.3,0,3.8,2,3.8,5v0.1c0,0.1,0,0.2,0,0.2v0.3 c0,0.1,0,0.3,0,0.4c-0.1,1.5-0.5,2-1.7,2.6c-1.2,0.6-4.7,1.1-5.1,1.2c-1.4,0.3-5.3,1.3-5.2,5.4c0.1,4,4.1,5.4,6.9,5.3 c2.7-0.1,4.3-1.2,5-1.8c0.4-0.3,0.4-0.3,0.7,0.1c0.4,0.4,1.7,1.7,4.8,1.7c3.2,0,3.6-1.5,3.8-2C99.3,32.2,98.7,31.9,98.4,32.4z  M86,33.5c-2.8,0-3.5-2.3-3.5-3.5c0-1.1,0.6-3.4,3.4-5c0,0,1.3-0.8,3.8-1.8c0.1,0,0.2,0,0.2,0v0.1l0,0l0,0c0,0.1,0,0.2,0,0.4v-0.1 c0,0,0,0,0,0.1v4.2C89.9,31.1,88.3,33.5,86,33.5z M76.4,33.4c-0.8-0.2-2.2-1.1-2.2-5.5v-8c0-1.9,0.2-6.8-7.3-6.8 c-3.9,0-6.1,2-6.3,2.1c-0.3,0.3-0.5,0.4-0.6-0.1c-0.1-0.4-0.3-1-0.4-1.4c-0.1-0.3-0.3-0.6-1-0.5c-0.7,0.1-5.1,0.8-5.9,1 c-0.7,0.2-0.5,0.5,0,0.6c0.5,0.1,2.9,0.3,2.9,4.4s0,8.6,0,8.6c0,5-1,5.4-1.9,5.7c-1.2,0.3-0.6,0.7-0.1,0.7c0,0,8.9,0,9.1,0 c0.6,0,0.9-0.6-0.3-0.8c-1.2-0.2-2.3-0.9-2.3-4.8c0-0.4,0-4.7,0-5.5c0-2.1-0.5-8.5,5.3-8.6c4.1-0.1,4.5,3.3,4.5,5.5v8.5 c0,3.5-1,4.6-2.2,4.8c-1.1,0.2-0.9,0.7-0.3,0.7c0.2,0,9.3,0,9.3,0C77.2,34.2,77.7,33.7,76.4,33.4z M52.1,32.4 c-0.4,0.9-1.2,1.2-1.7,1.2c-0.6,0-2.4-0.1-2.4-4.8c0,0,0-9.5,0-10.1c0-3.1-2.4-5.6-8.6-5.6c-6.7,0-6.8,3.3-6.8,4.1 c-0.1,0.9,0.4,1.9,2.1,1.9c1.5,0,1.9-1.7,2.1-2.3c0.2-0.7,0.3-2.7,3-2.7c2.3,0,3.7,2,3.8,4.9c0,0.5,0,0.8,0,1.1 c0,0.2,0,0.4-0.1,0.5v0.1l0,0c-0.2,1-0.7,1.5-1.6,1.9c-1.2,0.6-4.7,1.1-5.1,1.2c-1.4,0.3-5.3,1.3-5.2,5.4c0.1,4,4.1,5.4,6.9,5.3 c2.7-0.1,4.3-1.2,5-1.8c0.4-0.3,0.4-0.3,0.7,0.1c0.4,0.4,1.7,1.7,4.8,1.7c3.2,0,3.6-1.5,3.8-2C53,32.2,52.3,31.9,52.1,32.4z  M39.6,33.5c-2.8,0-3.5-2.3-3.5-3.5s0.6-3.4,3.4-5c0,0,1.3-0.8,3.8-1.8c0.1,0,0.2,0,0.2,0s0.1,0.1,0.1,0.2l0,0l0,0l0,0 c0,0,0,0.1,0,0.2l0,0l0,0v0.1l0,0l0,0l0,0v4.2C43.6,31.1,42,33.5,39.6,33.5z M30,24.8c-1,3.2-2.9,8.4-9.8,8.6 C13,33.5,8.7,28.6,8.5,19.5C8.2,9.8,12.4,2.4,18.9,2.2c7.3-0.1,9.9,8.6,10,9.9c0.1,1,1.4,0.9,1.4-0.1c0-0.5-0.6-9.1-0.8-10.1 c-0.2-1-1-0.6-1.2-0.2C28.2,2,28.4,1.4,28,2.3c-0.4,0.9-1.5,0.4-1.9,0.3c-1.2-0.5-3.5-1.7-7.2-1.6c-8.5,0.2-17.2,6.5-17,17.5 c0.2,10.7,8.8,16.7,16.8,16.6c7.3-0.1,11.4-4.7,12.6-10C31.7,23.8,30.4,23.5,30,24.8z"/>
	</g>
</svg>
