<?xml version="1.0" encoding="UTF-8" standalone="no"?>
<svg xmlns="http://www.w3.org/2000/svg" version="1.1" width="100%" height="100%" viewBox="0 0 957 440">
<!-- Web Experience Toolkit (WET) / Boîte à outils de l'expérience Web (BOEW)
wet-boew.github.io/wet-boew/License-en.html / wet-boew.github.io/wet-boew/Licence-fr.html  -->
<defs>
	<style type="text/css">
		.wxt_logo {fill:#000;}
		@media screen {.wxt_logo {fill: #FFF;}}
	</style>
</defs>
<g transform="matrix(1,0,0,0.99999897,-9.6901386,-462.70603)">
<path class="wxt_logo" d="M 784.76421,462.90748 C 731.02378,462.32641 692.43028,462.92058 670.00747,465.81109 627.01699,471.36234 581.50604,521.32921 561.29903,556.61298 533.1225,598.63518 502.75047,688.71895 456.44715,688.45762 410.14383,688.19629 383.3898,586.46163 342.35988,586.87543 301.32996,587.28923 280.41575,681.13815 217.75409,680.85877 155.09243,680.5794 106.13019,521.18393 92.880525,462.95097 L 9.6901386,462.95097 C 24.231399,554.63077 61.332242,625.08552 95.037833,673.97611 111.89062,698.42134 130.8032,720.94553 152.498,738.83848 174.1928,756.73157 189.29235,770.16273 231.22456,771.59698 273.15677,773.03123 310.59454,703.98949 336.85386,703.15671 361.10529,702.38761 367.52311,727.21076 358.42907,743.27683 349.33503,759.3429 325.08792,786.58449 316.37192,811.63499 303.9082,847.45703 300.39154,879.1467 301.15827,901.73096 L 386.18296,901.44462 C 386.97642,857.40138 414.64036,778.01003 458.37203,775.64864 484.4689,775.57768 530.7786,820.59899 544.6176,838.95024 558.4566,857.30149 569.7218,874.82986 594.71632,889.25345 619.71084,903.67704 654.60982,905.15482 687.79769,893.30218 732.03818,877.50249 754.42732,835.1839 767.75116,795.52174 781.07499,755.85945 787.08531,711.72939 791.59405,669.88643 796.10281,628.04332 797.61781,603.23233 801.78169,576.96002 802.6265,571.62968 804.64498,552.07124 822.78338,547.72943 840.92177,543.38762 966.89118,546.85344 966.89118,546.85344 L 967.11932,462.8124 C 967.11932,462.8124 838.50471,463.48815 784.76427,462.90708 z M 719.12466,548.42285 C 711.60107,623.14542 709.98489,698.34966 687.10247,768.40741 681.56172,784.77829 660.87745,829.58569 637.20824,815.5576 633.78894,813.58447 624.96399,804.15123 612.5065,787.66591 598.42641,769.03327 577.6579,741.58571 546.2944,720.92616 569.33744,697.96997 587.52298,669.6362 602.69124,644.73515 620.23787,615.92959 632.36107,591.69362 632.4233,591.56916 632.42347,591.5689 632.4641,591.48806 632.4641,591.48806 649.71879,556.9987 688.33393,540.78276 719.12466,548.42285 z"/>
</g>
</svg>
