<?xml version="1.0" encoding="utf-8"?>
<!-- Web Experience Toolkit (WET) / Boîte à outils de l'expérience Web (BOEW)
www.tbs.gc.ca/ws-nw/wet-boew/terms / www.sct.gc.ca/ws-nw/wet-boew/conditions -->
<svg version="1.1" xmlns="http://www.w3.org/2000/svg" width="217px" height="24px" viewBox="0 0 217 24">
	<defs>
		<style type="text/css">
			.fip_text {fill:#000;}.fip_flag {fill:#ED1F24;}
		</style>
	</defs>
	<g id="sig">
		<path class="fip_flag" d="M41.5,21.8h-9.9V2.2h9.9V21.8L41.5,21.8z M21.8,3.7c0,0-1.2,2.4-1.4,2.6c-0.2,0.3-0.3,0.3-0.6,0.2 c-0.3-0.2-1.3-0.7-1.3-0.7s0.9,3.9,0.9,4.2c0.1,0.3-0.2,0.6-0.6,0.3c-0.1-0.1-1.8-2-1.8-2s-0.4,0.9-0.5,1.1 c-0.1,0.2-0.2,0.3-0.4,0.2c-0.3-0.1-1.9-0.4-1.9-0.4s0.6,1.9,0.7,2.2c0.1,0.2,0.2,0.4-0.2,0.6l-0.6,0.2c0,0,3.3,2.9,3.4,3 c0.2,0.2,0.3,0.2,0.2,0.7c-0.2,0.5-0.3,1.1-0.3,1.1s3.1-0.7,3.4-0.7c0.3,0,0.6,0.1,0.6,0.4s-0.2,3.7-0.2,3.7h1 c0,0-0.2-3.3-0.2-3.7c0-0.3,0.3-0.4,0.6-0.4C22.9,16.4,26,17,26,17s-0.2-0.7-0.3-1.1c-0.2-0.5,0-0.6,0.2-0.7c0.1-0.1,3.4-3,3.4-3 L28.7,12c-0.3-0.2-0.2-0.4-0.2-0.6c0.1-0.2,0.7-2.2,0.7-2.2s-1.6,0.3-1.9,0.4c-0.2,0.1-0.3-0.1-0.4-0.2c-0.1-0.2-0.5-1.1-0.5-1.1s-1.7,2-1.8,2c-0.3,0.2-0.7,0-0.6-0.3c0-0.3,0.9-4.2,0.9-4.2s-1,0.6-1.3,0.7c-0.2,0.2-0.4,0.2-0.6-0.2C23,6,21.8,3.7,21.8,3.7 L21.8,3.7z M11.9,21.8V2.2H2v19.6H11.9L11.9,21.8z"/>
		<path class="fip_text" d="M66,10.2h-0.9l-0.2-0.9c-0.8,0.9-1.4,1.1-2.4,1.1c-2.4,0-3.8-1.9-3.8-4.2C58.6,3.9,60,2,62.4,2c1.8,0,3.2,0.9,3.4,2.7 h-1.4c-0.1-1.1-1.1-1.6-2.1-1.6c-1.7,0-2.4,1.5-2.4,3.1c0,1.5,0.7,3.1,2.4,3.1c1.4,0,2.2-0.8,2.3-2.2h-2.1V6H66V10.2z M67.1,7.3 c0-1.8,1.1-3.1,2.9-3.1s2.9,1.3,2.9,3.1c0,1.8-1.1,3.1-2.9,3.1S67.1,9.1,67.1,7.3z M71.6,7.3c0-1-0.5-2-1.7-2c-1.2,0-1.7,1-1.7,2 s0.5,2.1,1.7,2.1C71.1,9.4,71.6,8.3,71.6,7.3z M73.4,4.4h1.4l1.5,4.5l0,0l1.4-4.5H79l-2,5.8h-1.4L73.4,4.4z M80.8,7.6 c0,0.9,0.5,1.7,1.6,1.7c0.7,0,1.2-0.3,1.4-1H85c-0.3,1.3-1.4,2-2.6,2c-1.8,0-2.8-1.3-2.8-3.1c0-1.7,1.1-3.1,2.8-3.1 c1.8,0,3,1.7,2.7,3.4h-4.3V7.6z M83.8,6.8c0-0.8-0.6-1.5-1.5-1.5c-0.9,0-1.5,0.7-1.5,1.5H83.8z M86.1,4.4h1.2v1.1l0,0 c0.1-0.6,0.9-1.3,1.7-1.3c0.3,0,0.4,0,0.5,0v1.2c-0.2,0-0.4-0.1-0.6-0.1c-0.9,0-1.6,0.7-1.6,2v2.8H86V4.4H86.1z M90.3,4.4h1.2 v0.9l0,0c0.4-0.6,1-1,1.8-1c1.3,0,2.1,0.7,2.1,2v4h-1.3V6.6c0-0.9-0.4-1.3-1.1-1.3c-0.9,0-1.4,0.7-1.4,1.5v3.4h-1.3V4.4z  M96.7,4.4h1.2v0.8l0,0c0.4-0.6,0.9-1,1.8-1c0.7,0,1.4,0.3,1.6,1c0.4-0.6,1-1,1.8-1c1.2,0,1.9,0.5,1.9,2v4h-1.3V6.8 c0-0.9-0.1-1.6-1.1-1.6c-0.9,0-1.2,0.6-1.2,1.6v3.4h-1.3V6.5c0-0.8-0.2-1.2-1-1.2c-0.7,0-1.3,0.5-1.3,1.5v3.5h-1.3V4.4H96.7z  M107.5,7.6c0,0.9,0.5,1.7,1.6,1.7c0.7,0,1.2-0.3,1.4-1h1.2c-0.3,1.3-1.4,2-2.6,2c-1.8,0-2.8-1.3-2.8-3.1c0-1.7,1.1-3.1,2.8-3.1 c1.8,0,3,1.7,2.7,3.4h-4.3V7.6z M110.5,6.8c0-0.8-0.6-1.5-1.5-1.5c-0.9,0-1.5,0.7-1.5,1.5H110.5z M112.8,4.4h1.2v0.9l0,0 c0.4-0.6,1-1,1.8-1c1.3,0,2.1,0.7,2.1,2v4h-1.3V6.6c0-0.9-0.4-1.3-1.1-1.3c-0.9,0-1.4,0.7-1.4,1.5v3.4h-1.3V4.4z M118.7,4.4h1 V2.7h1.3v1.7h1.2v1H121v3.1c0,0.5,0,0.8,0.6,0.8c0.2,0,0.4,0,0.5,0v1c-0.3,0-0.6,0.1-0.8,0.1c-1.3,0-1.6-0.5-1.6-1.5V5.4h-1V4.4z  M58.5,18.9c0-1.8,1.1-3.1,2.9-3.1c1.9,0,2.9,1.3,2.9,3.1c0,1.8-1.1,3.1-2.9,3.1C59.6,22,58.5,20.7,58.5,18.9z M63.1,18.9 c0-1-0.5-2-1.7-2c-1.1,0-1.7,1-1.7,2s0.5,2.1,1.7,2.1C62.6,21,63.1,19.9,63.1,18.9z M64.9,16h1v-0.5c0-1.5,0.8-1.7,1.6-1.7 c0.4,0,0.7,0,0.9,0.1v1c-0.2,0-0.3-0.1-0.6-0.1c-0.3,0-0.6,0.1-0.6,0.6V16h1.1v1h-1.1v4.9h-1.3V17h-1V16z M77.7,16.3 c-0.2-0.9-0.8-1.6-2-1.6c-1.7,0-2.4,1.5-2.4,3.1c0,1.5,0.7,3.1,2.4,3.1c1.2,0,1.9-0.9,2-2.1h1.4C79,20.7,77.7,22,75.7,22 c-2.4,0-3.8-1.9-3.8-4.2s1.4-4.2,3.8-4.2c1.8,0,3.2,1,3.4,2.7H77.7z M85.1,20.5c0,0.3,0.1,0.4,0.3,0.4c0.1,0,0.2,0,0.3,0v0.9 c-0.2,0.1-0.6,0.1-0.8,0.1c-0.5,0-0.9-0.2-1-0.7c-0.5,0.5-1.3,0.7-2,0.7c-1,0-2-0.6-2-1.7c0-1.5,1.2-1.7,2.2-1.8 c0.9-0.2,1.7-0.1,1.7-0.8c0-0.7-0.7-0.8-1.2-0.8c-0.7,0-1.2,0.3-1.3,0.9H80c0.1-1.5,1.4-1.9,2.6-1.9c1.1,0,2.3,0.5,2.3,1.7v3 H85.1z M83.9,18.9c-0.4,0.3-1,0.2-1.6,0.3c-0.6,0.1-1,0.3-1,1c0,0.6,0.7,0.7,1.2,0.7c0.6,0,1.4-0.3,1.4-1.1V18.9z M86.5,16h1.2 v0.9l0,0c0.4-0.6,1-1,1.8-1c1.3,0,2.1,0.7,2.1,2v4h-1.3v-3.7c0-0.9-0.4-1.3-1.1-1.3c-0.9,0-1.4,0.7-1.4,1.5v3.4h-1.3V16z  M97.7,20.5c0,0.3,0.1,0.4,0.3,0.4c0.1,0,0.2,0,0.3,0v0.9c-0.2,0.1-0.6,0.1-0.8,0.1c-0.5,0-0.9-0.2-1-0.7c-0.5,0.5-1.3,0.7-2,0.7 c-1,0-2-0.6-2-1.7c0-1.5,1.2-1.7,2.2-1.8c0.9-0.2,1.7-0.1,1.7-0.8c0-0.7-0.7-0.8-1.2-0.8c-0.7,0-1.2,0.3-1.3,0.9h-1.3 c0.1-1.5,1.4-1.9,2.6-1.9c1.1,0,2.3,0.5,2.3,1.7v3H97.7z M96.4,18.9c-0.4,0.3-1,0.2-1.6,0.3c-0.6,0.1-1,0.3-1,1 c0,0.6,0.7,0.7,1.2,0.7c0.6,0,1.4-0.3,1.4-1.1V18.9z M104.5,21.8h-1.2V21l0,0c-0.3,0.7-1.1,0.9-1.8,0.9c-1.8,0-2.7-1.4-2.7-3.1 c0-2.1,1.3-3,2.5-3c0.7,0,1.5,0.3,1.9,0.9l0,0v-3h1.3V21.8z M101.7,21c1.1,0,1.6-1,1.6-2.1c0-1.3-0.6-2-1.6-2 c-1.2,0-1.6,1.1-1.6,2.1S100.6,21,101.7,21z M110.8,20.5c0,0.3,0.1,0.4,0.3,0.4c0.1,0,0.2,0,0.3,0v0.9c-0.2,0.1-0.6,0.1-0.8,0.1 c-0.5,0-0.9-0.2-1-0.7c-0.5,0.5-1.3,0.7-2,0.7c-1,0-2-0.6-2-1.7c0-1.5,1.2-1.7,2.2-1.8c0.9-0.2,1.7-0.1,1.7-0.8 c0-0.7-0.7-0.8-1.2-0.8c-0.7,0-1.2,0.3-1.3,0.9h-1.3c0.1-1.5,1.4-1.9,2.6-1.9c1.1,0,2.3,0.5,2.3,1.7v3H110.8z M109.5,18.9 c-0.4,0.3-1,0.2-1.6,0.3c-0.6,0.1-1,0.3-1,1c0,0.6,0.7,0.7,1.2,0.7c0.6,0,1.4-0.3,1.4-1.1V18.9z M146.9,10.2H146l-0.2-0.9 c-0.8,0.9-1.4,1.1-2.4,1.1c-2.4,0-3.8-1.9-3.8-4.2c0-2.3,1.4-4.2,3.8-4.2c1.8,0,3.2,0.9,3.4,2.7h-1.4c-0.1-1.1-1.1-1.6-2.1-1.6 c-1.7,0-2.4,1.5-2.4,3.1c0,1.5,0.7,3.1,2.4,3.1c1.4,0,2.2-0.8,2.3-2.2h-2.1V6h3.4V10.2z M148.1,7.3c0-1.8,1.1-3.1,2.9-3.1 c1.8,0,2.9,1.3,2.9,3.1c0,1.8-1.1,3.1-2.9,3.1C149.2,10.4,148.1,9.1,148.1,7.3z M152.6,7.3c0-1-0.5-2-1.7-2c-1.1,0-1.7,1-1.7,2 s0.5,2.1,1.7,2.1S152.6,8.3,152.6,7.3z M160.1,10.2h-1.3V9.4l0,0c-0.3,0.6-1,1-1.7,1c-1.5,0-2.2-0.8-2.2-2.3V4.4h1.3V8 c0,1,0.4,1.4,1.1,1.4c1.1,0,1.4-0.7,1.4-1.6V4.4h1.3L160.1,10.2L160.1,10.2z M160.9,4.4h1.4l1.5,4.5l0,0l1.4-4.5h1.3l-2.1,5.8 H163L160.9,4.4z M168.1,7.6c0,0.9,0.5,1.7,1.6,1.7c0.7,0,1.2-0.3,1.4-1h1.2c-0.3,1.3-1.4,2-2.6,2c-1.8,0-2.8-1.3-2.8-3.1 c0-1.7,1.1-3.1,2.8-3.1c1.8,0,3,1.7,2.7,3.4h-4.3V7.6z M171.1,6.8c0-0.8-0.6-1.5-1.5-1.5c-0.9,0-1.5,0.7-1.5,1.5H171.1z  M173.4,4.4h1.2v1.1l0,0c0.1-0.6,0.9-1.3,1.7-1.3c0.3,0,0.4,0,0.5,0v1.2c-0.2,0-0.4-0.1-0.6-0.1c-0.9,0-1.6,0.7-1.6,2v2.8h-1.3 L173.4,4.4L173.4,4.4z M177.4,4.4h1.2v0.9l0,0c0.4-0.6,1-1,1.8-1c1.3,0,2.1,0.7,2.1,2v4h-1.3V6.6c0-0.9-0.4-1.3-1.1-1.3 c-0.9,0-1.4,0.7-1.4,1.5v3.4h-1.3V4.4z M184.9,7.6c0,0.9,0.5,1.7,1.6,1.7c0.7,0,1.2-0.3,1.4-1h1.2c-0.3,1.3-1.4,2-2.6,2 c-1.8,0-2.8-1.3-2.8-3.1c0-1.7,1.1-3.1,2.8-3.1c1.8,0,3,1.7,2.7,3.4h-4.3V7.6z M187.9,6.8c0-0.8-0.6-1.5-1.5-1.5 s-1.5,0.7-1.5,1.5H187.9z M190.1,4.4h1.2v0.8l0,0c0.4-0.6,0.9-1,1.8-1c0.7,0,1.4,0.3,1.6,1c0.4-0.6,1-1,1.8-1 c1.2,0,1.9,0.5,1.9,2v4h-1.3V6.8c0-0.9-0.1-1.6-1.1-1.6c-0.9,0-1.2,0.6-1.2,1.6v3.4h-1.3V6.5c0-0.8-0.2-1.2-1-1.2 c-0.7,0-1.3,0.5-1.3,1.5v3.5h-1.3V4.4H190.1z M200.9,7.6c0,0.9,0.5,1.7,1.6,1.7c0.7,0,1.2-0.3,1.4-1h1.2c-0.3,1.3-1.4,2-2.6,2 c-1.8,0-2.8-1.3-2.8-3.1c0-1.7,1.1-3.1,2.8-3.1c1.8,0,3,1.7,2.7,3.4h-4.3V7.6z M203.9,6.8c0-0.8-0.6-1.5-1.5-1.5 s-1.5,0.7-1.5,1.5H203.9z M206.2,4.4h1.2v0.9l0,0c0.4-0.6,1-1,1.8-1c1.3,0,2.1,0.7,2.1,2v4H210V6.6c0-0.9-0.4-1.3-1.1-1.3 c-0.9,0-1.4,0.7-1.4,1.5v3.4h-1.3V4.4z M212,4.4h1V2.7h1.3v1.7h1.2v1h-1.2v3.1c0,0.5,0,0.8,0.6,0.8c0.2,0,0.4,0,0.5,0v1 c-0.3,0-0.6,0.1-0.8,0.1c-1.3,0-1.6-0.5-1.6-1.5V5.4h-1V4.4z M145.2,21.8H144V21l0,0c-0.3,0.7-1.1,0.9-1.8,0.9 c-1.8,0-2.7-1.4-2.7-3.1c0-2.1,1.2-3,2.5-3c0.7,0,1.5,0.3,1.9,0.9l0,0v-3h1.3V21.8z M142.3,21c1.1,0,1.6-1,1.6-2.1 c0-1.3-0.6-2-1.6-2c-1.2,0-1.6,1.1-1.6,2.1S141.2,21,142.3,21z M151.7,21.8h-1.3V21l0,0c-0.3,0.6-1,1-1.7,1 c-1.5,0-2.2-0.8-2.2-2.3V16h1.3v3.6c0,1,0.4,1.4,1.1,1.4c1.1,0,1.4-0.7,1.4-1.6V16h1.3v5.8H151.7z M161.8,16.3 c-0.2-0.9-0.8-1.6-2-1.6c-1.7,0-2.4,1.5-2.4,3.1c0,1.5,0.7,3.1,2.4,3.1c1.3,0,1.9-0.9,2-2.1h1.4c-0.1,1.9-1.5,3.3-3.4,3.3 c-2.4,0-3.8-1.9-3.8-4.2c0-2.3,1.4-4.2,3.8-4.2c1.8,0,3.2,1,3.4,2.7h-1.4V16.3z M169.1,20.5c0,0.3,0.1,0.4,0.3,0.4 c0.1,0,0.2,0,0.3,0v0.9c-0.2,0.1-0.6,0.1-0.8,0.1c-0.5,0-0.9-0.2-1-0.7c-0.5,0.5-1.3,0.7-2,0.7c-1,0-2-0.6-2-1.7 c0-1.5,1.2-1.7,2.2-1.8c0.9-0.2,1.7-0.1,1.7-0.8c0-0.7-0.7-0.8-1.2-0.8c-0.7,0-1.2,0.3-1.3,0.9H164c0.1-1.5,1.4-1.9,2.6-1.9 c1.1,0,2.3,0.5,2.3,1.7v3H169.1z M167.8,18.9c-0.4,0.3-1,0.2-1.6,0.3c-0.6,0.1-1,0.3-1,1c0,0.6,0.7,0.7,1.2,0.7 c0.6,0,1.4-0.3,1.4-1.1V18.9L167.8,18.9z M170.6,16h1.2v0.9l0,0c0.4-0.6,1-1,1.8-1c1.3,0,2.1,0.7,2.1,2v4h-1.3v-3.7 c0-0.9-0.4-1.3-1.1-1.3c-0.9,0-1.4,0.7-1.4,1.5v3.4h-1.3V16z M181.7,20.5c0,0.3,0.1,0.4,0.3,0.4c0.1,0,0.2,0,0.3,0v0.9 c-0.2,0.1-0.6,0.1-0.8,0.1c-0.5,0-0.9-0.2-1-0.7c-0.5,0.5-1.3,0.7-2,0.7c-1,0-2-0.6-2-1.7c0-1.5,1.2-1.7,2.2-1.8 c0.9-0.2,1.7-0.1,1.7-0.8c0-0.7-0.7-0.8-1.2-0.8c-0.7,0-1.2,0.3-1.3,0.9h-1.3c0.1-1.5,1.4-1.9,2.6-1.9c1.1,0,2.3,0.5,2.3,1.7v3 H181.7z M180.4,18.9c-0.4,0.3-1,0.2-1.6,0.3c-0.6,0.1-1,0.3-1,1c0,0.6,0.7,0.7,1.2,0.7c0.6,0,1.4-0.3,1.4-1.1V18.9L180.4,18.9z  M188.6,21.8h-1.2V21l0,0c-0.3,0.7-1.1,0.9-1.8,0.9c-1.8,0-2.7-1.4-2.7-3.1c0-2.1,1.3-3,2.5-3c0.7,0,1.5,0.3,1.9,0.9l0,0v-3h1.3 V21.8z M185.7,21c1.1,0,1.6-1,1.6-2.1c0-1.3-0.6-2-1.6-2c-1.2,0-1.6,1.1-1.6,2.1S184.6,21,185.7,21z M194.8,20.5 c0,0.3,0.1,0.4,0.3,0.4c0.1,0,0.2,0,0.3,0v0.9c-0.2,0.1-0.6,0.1-0.8,0.1c-0.5,0-0.9-0.2-1-0.7c-0.5,0.5-1.3,0.7-2,0.7 c-1,0-2-0.6-2-1.7c0-1.5,1.2-1.7,2.2-1.8c0.9-0.2,1.7-0.1,1.7-0.8c0-0.7-0.7-0.8-1.2-0.8c-0.7,0-1.2,0.3-1.3,0.9h-1.3 c0.1-1.5,1.4-1.9,2.6-1.9c1.1,0,2.3,0.5,2.3,1.7v3H194.8z M193.5,18.9c-0.4,0.3-1,0.2-1.6,0.3c-0.6,0.1-1,0.3-1,1 c0,0.6,0.7,0.7,1.2,0.7c0.6,0,1.4-0.3,1.4-1.1V18.9L193.5,18.9z"/>
	</g>
</svg>
