<?xml version="1.0" encoding="utf-8"?>
<!-- Web Experience Toolkit (WET) / Boîte à outils de l'expérience Web (BOEW)
www.tbs.gc.ca/ws-nw/wet-boew/terms / www.sct.gc.ca/ws-nw/wet-boew/conditions -->
<svg version="1.1" xmlns="http://www.w3.org/2000/svg" width="217px" height="24px">
	<defs>
		<style type="text/css">
			.fip_text {fill:#000;}.fip_flag {fill:#ED1F24;}
		</style>
	</defs>
	<g id="sig">
		<path class="fip_flag" d="M41.5,21.8h-9.9V2.2h9.9V21.8L41.5,21.8z M21.8,3.7c0,0-1.2,2.4-1.4,2.6c-0.2,0.3-0.3,0.3-0.6,0.2 c-0.3-0.2-1.3-0.7-1.3-0.7s0.9,3.9,0.9,4.2c0.1,0.3-0.2,0.6-0.6,0.3c-0.1-0.1-1.8-2-1.8-2s-0.4,0.9-0.5,1.1 c-0.1,0.2-0.2,0.3-0.4,0.2c-0.3-0.1-1.9-0.4-1.9-0.4s0.6,1.9,0.7,2.2c0.1,0.2,0.2,0.4-0.2,0.6l-0.6,0.2c0,0,3.3,2.9,3.4,3 c0.2,0.2,0.3,0.2,0.2,0.7c-0.2,0.5-0.3,1.1-0.3,1.1s3.1-0.7,3.4-0.7c0.3,0,0.6,0.1,0.6,0.4s-0.2,3.7-0.2,3.7h1 c0,0-0.2-3.3-0.2-3.7c0-0.3,0.3-0.4,0.6-0.4C22.9,16.4,26,17,26,17s-0.2-0.7-0.3-1.1c-0.2-0.5,0-0.6,0.2-0.7c0.1-0.1,3.4-3,3.4-3 L28.7,12c-0.3-0.2-0.2-0.4-0.2-0.6c0.1-0.2,0.7-2.2,0.7-2.2s-1.6,0.3-1.9,0.4c-0.2,0.1-0.3-0.1-0.4-0.2c-0.1-0.2-0.5-1.1-0.5-1.1 s-1.7,2-1.8,2c-0.3,0.2-0.7,0-0.6-0.3c0-0.3,0.9-4.2,0.9-4.2s-1,0.6-1.3,0.7c-0.2,0.2-0.4,0.2-0.6-0.2C23,6,21.8,3.7,21.8,3.7 L21.8,3.7z M11.9,21.8V2.2H2v19.6H11.9L11.9,21.8z"/>
		<path class="fip_text" d="M158.8,10.2h-0.9l-0.2-0.9c-0.8,0.9-1.4,1.1-2.4,1.1c-2.4,0-3.8-1.9-3.8-4.2c0-2.3,1.4-4.2,3.8-4.2 c1.8,0,3.2,0.9,3.4,2.7h-1.4c-0.1-1.1-1.1-1.6-2.1-1.6c-1.7,0-2.4,1.5-2.4,3.1c0,1.6,0.7,3.1,2.4,3.1c1.4,0,2.2-0.8,2.3-2.2h-2.1 V6h3.4V10.2z M159.9,7.3c0-1.8,1.1-3.1,2.9-3.1s2.9,1.3,2.9,3.1c0,1.8-1.1,3.1-2.9,3.1S159.9,9.1,159.9,7.3z M164.5,7.3 c0-1-0.5-2-1.7-2c-1.1,0-1.7,1-1.7,2s0.5,2.1,1.7,2.1S164.5,8.3,164.5,7.3z M166.3,4.4h1.4l1.5,4.5l0,0l1.4-4.5h1.3l-2.1,5.8 h-1.4L166.3,4.4z M173.7,7.6c0,0.9,0.5,1.7,1.6,1.7c0.7,0,1.2-0.3,1.4-1h1.2c-0.3,1.3-1.4,2-2.6,2c-1.8,0-2.8-1.3-2.8-3.1 c0-1.7,1.1-3.1,2.8-3.1c1.8,0,3,1.7,2.7,3.4h-4.3V7.6z M176.7,6.8c0-0.8-0.6-1.5-1.5-1.5c-0.9,0-1.5,0.7-1.5,1.5H176.7z M179,4.4 h1.2v1.1l0,0c0.1-0.6,0.9-1.3,1.7-1.3c0.3,0,0.4,0,0.5,0v1.2c-0.2,0-0.4-0.1-0.6-0.1c-0.9,0-1.6,0.7-1.6,2v2.8H179V4.4z  M183.1,4.4h1.2v0.9l0,0c0.4-0.6,1-1,1.8-1c1.3,0,2.1,0.7,2.1,2v4H187V6.6c0-0.9-0.4-1.3-1.1-1.3c-0.9,0-1.4,0.7-1.4,1.5v3.4 h-1.3V4.4H183.1z M189.6,4.4h1.2v0.8l0,0c0.4-0.6,0.9-1,1.8-1c0.7,0,1.4,0.3,1.6,1c0.4-0.6,1-1,1.8-1c1.2,0,1.9,0.5,1.9,2v4h-1.3 V6.8c0-0.9-0.1-1.6-1.1-1.6c-0.9,0-1.2,0.6-1.2,1.6v3.4H193V6.5c0-0.8-0.2-1.2-1-1.2c-0.7,0-1.3,0.5-1.3,1.5v3.5h-1.3V4.4H189.6z  M200.4,7.6c0,0.9,0.5,1.7,1.6,1.7c0.7,0,1.2-0.3,1.4-1h1.2c-0.3,1.3-1.4,2-2.6,2c-1.8,0-2.8-1.3-2.8-3.1c0-1.7,1.1-3.1,2.8-3.1 c1.8,0,3,1.7,2.7,3.4h-4.3V7.6z M203.4,6.8c0-0.8-0.6-1.5-1.5-1.5c-0.9,0-1.5,0.7-1.5,1.5H203.4z M205.6,4.4h1.2v0.9l0,0 c0.4-0.6,1-1,1.8-1c1.3,0,2.1,0.7,2.1,2v4h-1.3V6.6c0-0.9-0.4-1.3-1.1-1.3c-0.9,0-1.4,0.7-1.4,1.5v3.4h-1.3V4.4z M211.5,4.4h1 V2.7h1.3v1.7h1.2v1h-1.2v3.1c0,0.5,0,0.8,0.6,0.8c0.2,0,0.4,0,0.5,0v1c-0.3,0-0.6,0.1-0.8,0.1c-1.3,0-1.6-0.5-1.6-1.5V5.4h-1V4.4 z M151.4,18.9c0-1.8,1.1-3.1,2.9-3.1s2.9,1.3,2.9,3.1c0,1.8-1.1,3.1-2.9,3.1S151.4,20.7,151.4,18.9z M156,18.9c0-1-0.5-2-1.7-2 c-1.1,0-1.7,1-1.7,2s0.5,2.1,1.7,2.1S156,19.9,156,18.9z M157.7,16h1v-0.5c0-1.5,0.8-1.7,1.6-1.7c0.4,0,0.7,0,0.9,0.1v1 c-0.2,0-0.3-0.1-0.6-0.1c-0.3,0-0.6,0.1-0.6,0.6V16h1.1v1H160v4.9h-1.3V17h-1V16z M170.6,16.3c-0.2-0.9-0.8-1.6-2-1.6 c-1.7,0-2.4,1.5-2.4,3.1c0,1.6,0.7,3.1,2.4,3.1c1.2,0,1.9-0.9,2-2.1h1.4c-0.1,1.9-1.5,3.3-3.4,3.3c-2.4,0-3.8-1.9-3.8-4.2 c0-2.3,1.4-4.2,3.8-4.2c1.8,0,3.2,1,3.4,2.7h-1.4V16.3z M178,20.5c0,0.3,0.1,0.4,0.3,0.4c0.1,0,0.2,0,0.3,0v0.9 c-0.2,0.1-0.6,0.1-0.8,0.1c-0.5,0-0.9-0.2-1-0.7c-0.5,0.5-1.3,0.7-2,0.7c-1,0-2-0.6-2-1.7c0-1.5,1.2-1.7,2.2-1.8 c0.9-0.2,1.7-0.1,1.7-0.8c0-0.7-0.7-0.8-1.2-0.8c-0.7,0-1.2,0.3-1.3,0.9H173c0.1-1.5,1.4-1.9,2.6-1.9c1.1,0,2.3,0.5,2.3,1.7 L178,20.5L178,20.5z M176.7,18.9c-0.4,0.3-1,0.2-1.6,0.3c-0.6,0.1-1,0.3-1,1c0,0.6,0.7,0.7,1.2,0.7c0.6,0,1.4-0.3,1.4-1.1V18.9 L176.7,18.9z M179.4,16h1.2v0.9l0,0c0.4-0.6,1-1,1.8-1c1.3,0,2.1,0.7,2.1,2v4h-1.3v-3.7c0-0.9-0.4-1.3-1.1-1.3 c-0.9,0-1.4,0.7-1.4,1.5v3.4h-1.3V16z M190.5,20.5c0,0.3,0.1,0.4,0.3,0.4c0.1,0,0.2,0,0.3,0v0.9c-0.2,0.1-0.6,0.1-0.8,0.1 c-0.5,0-0.9-0.2-1-0.7c-0.5,0.5-1.3,0.7-2,0.7c-1,0-2-0.6-2-1.7c0-1.5,1.2-1.7,2.2-1.8c0.9-0.2,1.7-0.1,1.7-0.8 c0-0.7-0.7-0.8-1.2-0.8c-0.7,0-1.2,0.3-1.3,0.9h-1.3c0.1-1.5,1.4-1.9,2.6-1.9c1.1,0,2.3,0.5,2.3,1.7v3H190.5z M189.3,18.9 c-0.4,0.3-1,0.2-1.6,0.3c-0.6,0.1-1,0.3-1,1c0,0.6,0.7,0.7,1.2,0.7c0.6,0,1.4-0.3,1.4-1.1V18.9L189.3,18.9z M197.4,21.8h-1.2V21 l0,0c-0.3,0.7-1.1,0.9-1.8,0.9c-1.8,0-2.7-1.4-2.7-3.1c0-2.1,1.3-3,2.5-3c0.7,0,1.5,0.3,1.9,0.9l0,0v-3h1.3V21.8z M194.5,21 c1.2,0,1.6-1,1.6-2.1c0-1.3-0.6-2-1.6-2c-1.2,0-1.6,1.1-1.6,2.1S193.4,21,194.5,21z M203.7,20.5c0,0.3,0.1,0.4,0.3,0.4 c0.1,0,0.2,0,0.3,0v0.9c-0.2,0.1-0.6,0.1-0.8,0.1c-0.5,0-0.9-0.2-1-0.7c-0.5,0.5-1.3,0.7-2,0.7c-1,0-2-0.6-2-1.7 c0-1.5,1.2-1.7,2.2-1.8c0.9-0.2,1.7-0.1,1.7-0.8c0-0.7-0.7-0.8-1.2-0.8c-0.7,0-1.2,0.3-1.3,0.9h-1.3c0.1-1.5,1.4-1.9,2.6-1.9 c1.1,0,2.3,0.5,2.3,1.7v3H203.7z M202.4,18.9c-0.4,0.3-1,0.2-1.6,0.3c-0.6,0.1-1,0.3-1,1c0,0.6,0.7,0.7,1.2,0.7 c0.6,0,1.4-0.3,1.4-1.1V18.9L202.4,18.9z M66,10.2h-0.9l-0.2-0.9c-0.8,0.9-1.4,1.1-2.4,1.1c-2.4,0-3.8-1.9-3.8-4.2 c0-2.3,1.4-4.2,3.8-4.2c1.8,0,3.2,0.9,3.4,2.7h-1.4c-0.1-1.1-1.1-1.6-2.1-1.6c-1.7,0-2.4,1.5-2.4,3.1c0,1.5,0.7,3.1,2.4,3.1 c1.4,0,2.2-0.8,2.3-2.2h-2.1V6H66V10.2z M67.1,7.3c0-1.8,1.1-3.1,2.9-3.1s3,1.3,3,3.1c0,1.8-1.1,3.1-2.9,3.1 C68.3,10.4,67.1,9.1,67.1,7.3z M71.7,7.3c0-1-0.5-2-1.7-2c-1.1,0-1.7,1-1.7,2s0.5,2.1,1.7,2.1S71.7,8.3,71.7,7.3z M79.2,10.2 h-1.3V9.4l0,0c-0.3,0.6-1,1-1.7,1c-1.5,0-2.2-0.8-2.2-2.3V4.4h1.3V8c0,1,0.4,1.4,1.1,1.4c1.1,0,1.4-0.7,1.4-1.6V4.4h1.3v5.8H79.2 z M79.9,4.4h1.4l1.5,4.5l0,0l1.4-4.5h1.3l-2.1,5.8H82L79.9,4.4z M87.1,7.6c0,0.9,0.5,1.7,1.6,1.7c0.7,0,1.2-0.3,1.4-1h1.2 c-0.3,1.3-1.4,2-2.6,2c-1.8,0-2.8-1.3-2.8-3.1c0-1.7,1.1-3.1,2.8-3.1c1.8,0,3,1.7,2.7,3.4h-4.3V7.6z M90.1,6.8 c0-0.8-0.6-1.5-1.5-1.5S87.1,6,87.1,6.8H90.1z M92.4,4.4h1.2v1.1l0,0c0.1-0.6,0.9-1.3,1.7-1.3c0.3,0,0.4,0,0.5,0v1.2 c-0.2,0-0.4-0.1-0.6-0.1c-0.9,0-1.6,0.7-1.6,2v2.8h-1.3V4.4H92.4z M96.5,4.4h1.2v0.9l0,0c0.4-0.6,1-1,1.8-1c1.3,0,2.1,0.7,2.1,2 v4h-1.3V6.6c0-0.9-0.4-1.3-1.1-1.3c-0.9,0-1.4,0.7-1.4,1.5v3.4h-1.3V4.4z M103.9,7.6c0,0.9,0.5,1.7,1.6,1.7c0.7,0,1.2-0.3,1.4-1 h1.2c-0.3,1.3-1.4,2-2.6,2c-1.8,0-2.8-1.3-2.8-3.1c0-1.7,1.1-3.1,2.8-3.1c1.8,0,3,1.7,2.7,3.4h-4.3V7.6z M106.9,6.8 c0-0.8-0.6-1.5-1.5-1.5s-1.5,0.7-1.5,1.5H106.9z M109.2,4.4h1.2v0.8l0,0c0.4-0.6,0.9-1,1.8-1c0.7,0,1.4,0.3,1.6,1 c0.4-0.6,1-1,1.8-1c1.2,0,1.9,0.5,1.9,2v4h-1.3V6.8c0-0.9-0.1-1.6-1.1-1.6c-0.9,0-1.2,0.6-1.2,1.6v3.4h-1.3V6.5 c0-0.8-0.2-1.2-1-1.2c-0.7,0-1.3,0.5-1.3,1.5v3.5H109V4.4H109.2z M120,7.6c0,0.9,0.5,1.7,1.6,1.7c0.7,0,1.2-0.3,1.4-1h1.2 c-0.3,1.3-1.4,2-2.6,2c-1.8,0-2.8-1.3-2.8-3.1c0-1.7,1.1-3.1,2.8-3.1c1.8,0,3,1.7,2.7,3.4H120V7.6z M123,6.8 c0-0.8-0.6-1.5-1.5-1.5S120,6,120,6.8H123z M125.3,4.4h1.2v0.9l0,0c0.4-0.6,1-1,1.8-1c1.3,0,2.1,0.7,2.1,2v4h-1.3V6.6 c0-0.9-0.4-1.3-1.1-1.3c-0.9,0-1.4,0.7-1.4,1.5v3.4h-1.3V4.4z M131.1,4.4h1V2.7h1.3v1.7h1.2v1h-1.2v3.1c0,0.5,0,0.8,0.6,0.8 c0.2,0,0.4,0,0.5,0v1c-0.3,0-0.6,0.1-0.8,0.1c-1.3,0-1.6-0.5-1.6-1.5V5.4h-1V4.4z M64.3,21.8h-1.2V21l0,0c-0.4,0.7-1.1,1-1.9,1 c-1.8,0-2.7-1.4-2.7-3.1c0-2.1,1.2-3,2.5-3c0.7,0,1.5,0.3,1.9,0.9l0,0v-3h1.3L64.3,21.8L64.3,21.8z M61.4,21c1.1,0,1.6-1,1.6-2.1 c0-1.3-0.6-2-1.6-2c-1.2,0-1.6,1.1-1.6,2.1S60.3,21,61.4,21z M70.8,21.8h-1.3V21l0,0c-0.3,0.6-1,1-1.7,1c-1.5,0-2.2-0.8-2.2-2.3 V16h1.3v3.6c0,1,0.4,1.4,1.1,1.4c1.1,0,1.4-0.7,1.4-1.6V16h1.3L70.8,21.8L70.8,21.8z M80.8,16.3c-0.2-0.9-0.8-1.6-2-1.6 c-1.7,0-2.4,1.5-2.4,3.1c0,1.5,0.7,3.1,2.4,3.1c1.2,0,1.9-0.9,2-2.1h1.4c-0.1,1.9-1.5,3.3-3.4,3.3c-2.4,0-3.8-1.9-3.8-4.2 c0-2.3,1.4-4.2,3.8-4.2c1.8,0,3.2,1,3.4,2.7h-1.4V16.3z M88.2,20.5c0,0.3,0.1,0.4,0.3,0.4c0.1,0,0.2,0,0.3,0v0.9 C88.6,21.9,88.2,22,88,22c-0.5,0-0.9-0.2-1-0.7c-0.5,0.5-1.3,0.7-2,0.7c-1,0-2-0.6-2-1.7c0-1.5,1.2-1.7,2.2-1.8 c0.9-0.2,1.7-0.1,1.7-0.8s-0.7-0.8-1.2-0.8c-0.7,0-1.2,0.3-1.3,0.9h-1.3c0.1-1.5,1.4-1.9,2.6-1.9c1.1,0,2.3,0.5,2.3,1.7v2.9H88.2 z M86.9,18.9c-0.4,0.3-1,0.2-1.6,0.3c-0.6,0.1-1,0.3-1,1c0,0.6,0.7,0.7,1.2,0.7c0.6,0,1.4-0.3,1.4-1.1V18.9z M89.6,16h1.2v0.9 l0,0c0.4-0.6,1-1,1.8-1c1.3,0,2.1,0.7,2.1,2v4h-1.3v-3.7c0-0.9-0.4-1.3-1.1-1.3c-0.9,0-1.4,0.7-1.4,1.5v3.4h-1.3V16z M100.8,20.5 c0,0.3,0.1,0.4,0.3,0.4c0.1,0,0.2,0,0.3,0v0.9c-0.2,0.1-0.6,0.1-0.8,0.1c-0.5,0-0.9-0.2-1-0.7c-0.5,0.5-1.3,0.7-2,0.7 c-1,0-2-0.6-2-1.7c0-1.5,1.2-1.7,2.2-1.8c0.9-0.2,1.7-0.1,1.7-0.8c0-0.7-0.7-0.8-1.2-0.8c-0.7,0-1.2,0.3-1.3,0.9h-1.3 c0.1-1.5,1.4-1.9,2.6-1.9c1.1,0,2.3,0.5,2.3,1.7v3H100.8z M99.5,18.9c-0.4,0.3-1,0.2-1.6,0.3c-0.6,0.1-1,0.3-1,1 c0,0.6,0.7,0.7,1.2,0.7c0.6,0,1.4-0.3,1.4-1.1V18.9z M107.6,21.8h-1.2V21l0,0c-0.3,0.7-1.1,0.9-1.8,0.9c-1.8,0-2.7-1.4-2.7-3.1 c0-2.1,1.2-3,2.5-3c0.7,0,1.5,0.3,1.9,0.9l0,0v-3h1.3V21.8z M104.8,21c1.1,0,1.6-1,1.6-2.1c0-1.3-0.6-2-1.6-2 c-1.2,0-1.6,1.1-1.6,2.1S103.7,21,104.8,21z M113.9,20.5c0,0.3,0.1,0.4,0.3,0.4c0.1,0,0.2,0,0.3,0v0.9c-0.2,0.1-0.6,0.1-0.8,0.1 c-0.5,0-0.9-0.2-1-0.7c-0.5,0.5-1.3,0.7-2,0.7c-1,0-2-0.6-2-1.7c0-1.5,1.2-1.7,2.2-1.8c0.9-0.2,1.7-0.1,1.7-0.8 c0-0.7-0.7-0.8-1.2-0.8c-0.7,0-1.2,0.3-1.3,0.9h-1.3c0.1-1.5,1.4-1.9,2.6-1.9c1.1,0,2.3,0.5,2.3,1.7v3H113.9z M112.6,18.9 c-0.4,0.3-1,0.2-1.6,0.3c-0.6,0.1-1,0.3-1,1c0,0.6,0.7,0.7,1.2,0.7c0.6,0,1.4-0.3,1.4-1.1V18.9z"/>
	</g>
</svg>
